<svg width="558" height="531" viewBox="0 0 558 531" fill="none" xmlns="http://www.w3.org/2000/svg">
<path d="M272.048 4.70006C262.948 11.7001 240.548 34.5001 234.048 43.3001C223.248 58.2001 219.248 64.5001 213.448 76.0001C202.848 97.5001 197.948 115.7 196.848 137.9C196.248 148.5 197.848 167.3 199.348 169.7C199.748 170.2 202.348 172.1 205.048 174C227.448 188.9 248.048 210.8 266.048 238.8C268.648 242.8 270.848 246 271.048 245.8C271.248 245.6 271.848 237.4 272.448 227.5C273.648 207.6 276.248 168.6 277.148 157.2C277.448 153.3 278.048 150 278.548 150C279.448 150 279.948 154.8 281.548 179C283.948 215.8 286.548 257.7 286.648 260.5C286.648 263.2 287.448 263.9 294.048 267.1L301.448 270.8L307.848 263.6C320.648 249.3 332.548 232.4 340.848 217C345.748 207.9 351.848 194 350.848 194C350.548 194 350.748 193.4 351.348 192.7C355.048 188.1 360.548 158.9 360.548 143.5C360.548 96.1001 333.348 44.9001 288.248 7.40006C283.348 3.30006 279.048 6.49691e-05 278.748 6.49691e-05C278.348 6.49691e-05 275.348 2.10006 272.048 4.70006ZM286.148 126.1C289.148 128.9 289.948 133.9 287.948 137.8C286.048 141.6 283.548 143.2 278.748 143.3C273.948 143.4 269.548 138.6 269.548 133.2C269.548 129.4 272.648 125.2 276.548 123.7C279.048 122.7 283.848 123.9 286.148 126.1Z" fill="#FF33A7"/>
<path d="M97.1484 163.1C85.6484 164.5 69.7484 168.4 56.0484 173.2C42.1484 178.1 18.5484 189.6 7.24842 197C0.548422 201.4 -0.451578 202.4 0.148422 204.3C1.84842 210.2 8.34842 224.7 13.7484 235C40.4484 286.1 79.4484 318.9 124.848 328.6C135.048 330.7 137.148 330.5 141.848 326.6C160.248 311.6 192.748 296 220.348 289C225.348 287.7 229.548 286.4 229.548 286.1C229.548 285.3 224.948 283.4 180.848 265.9C147.348 252.7 139.248 249 143.648 249C144.248 249 156.048 251.9 169.848 255.4C183.748 259 204.948 264.4 217.048 267.4C229.148 270.5 241.648 273.7 244.748 274.6L250.448 276.3L254.448 272.7C256.648 270.8 259.648 268.4 261.248 267.4C262.748 266.4 264.248 265.5 264.448 265.4C265.048 265 258.648 254.2 250.948 242.5C241.148 227.7 232.648 217.4 220.848 205.9C198.548 184.2 177.848 172.5 149.248 165.4C140.948 163.4 135.948 162.8 122.048 162.5C112.748 162.3 101.448 162.6 97.1484 163.1ZM131.848 233.9C134.848 235.1 137.548 240.6 137.348 245.3C137.248 248.3 136.648 249.1 133.548 250.9C128.248 253.8 124.248 253.6 120.348 250.1C111.748 242.4 120.748 229.7 131.848 233.9Z" fill="#FF33A7"/>
<path d="M420.048 163.1C406.048 165 384.848 171.7 375.248 177.3C371.548 179.4 371.148 180.2 367.048 192.6C358.348 218.5 344.048 243.4 323.848 267.5C321.948 269.7 320.848 271.6 321.348 271.8C321.848 271.9 332.148 269.5 344.148 266.4C396.748 252.9 416.048 248.1 416.448 248.6C417.648 249.8 413.948 251.4 375.048 266.5C365.748 270.1 356.748 273.7 355.048 274.4C353.448 275.2 343.148 279.3 332.348 283.5L312.648 291.3V297C312.648 300.1 312.348 304.3 312.048 306.3C311.348 309.9 311.348 310 316.148 312.1C334.448 320 356.648 326.7 374.048 329.6C387.848 331.8 414.148 331.9 426.248 329.7C475.848 320.7 517.048 287 544.648 232.7C549.548 223 557.548 204.4 557.548 202.6C557.548 200.7 528.848 184.5 515.548 178.8C489.848 167.9 468.548 163 444.048 162.5C434.748 162.3 423.948 162.6 420.048 163.1ZM436.348 235.5C441.448 239.8 441.448 246.8 436.248 251.1C433.148 253.7 426.948 253.5 423.048 250.8C420.448 249.1 419.848 247.9 419.748 244.8C419.548 240.1 421.848 235.2 424.848 234C428.948 232.3 433.248 232.9 436.348 235.5Z" fill="#49D8F8"/>
<path d="M228.048 302C201.348 308.9 181.148 317.6 161.648 330.4C148.548 339.1 129.148 358 121.648 369.5C106.648 392.4 98.3484 418 96.7484 446.7C95.6484 465.5 95.5484 467.2 96.6484 480.9C97.8484 495.6 100.548 510.9 104.648 526.4L105.748 530.3L118.348 529.7C140.148 528.6 163.348 523.6 185.048 515.3C221.948 501.1 250.748 476.8 267.348 445.6L270.548 439.8L266.548 428.1C258.948 405.7 256.148 384.7 256.648 355.1C257.048 337.7 256.948 336.2 255.448 337.8C254.548 338.7 247.348 347.4 239.448 357C231.448 366.6 219.848 380.7 213.548 388.3C203.048 401 199.848 403.7 200.148 399.7C200.248 398.4 216.348 372.3 231.048 349.5C233.948 345.1 239.548 336.4 243.448 330.1L250.748 318.7L248.148 313.6C246.748 310.8 245.148 306.1 244.448 303.2C243.848 300.4 243.348 298 243.248 298C243.148 298.1 236.348 299.8 228.048 302ZM189.148 413.6C190.248 413.9 191.948 415.4 192.848 417C197.348 424.5 192.748 433 184.348 433C178.948 433 176.048 431.1 174.548 426.5C173.148 422.2 174.648 416.8 177.848 414.5C180.048 413 185.248 412.6 189.148 413.6Z" fill="#FF33A7"/>
<path d="M312.648 328.1C313.248 329.3 324.748 347.5 338.148 368.7C351.548 389.9 362.548 407.6 362.548 408.1C362.548 408.6 362.148 409 361.648 409C360.748 409 355.548 402.8 320.648 360.6C313.748 352.3 307.948 345.3 307.548 345C307.248 344.7 304.348 341.2 301.148 337.2C297.948 333.2 294.948 329.7 294.448 329.5C294.048 329.2 291.148 329.7 287.948 330.5C284.748 331.3 280.048 332 277.448 332C271.748 332 271.948 331.5 270.948 350.5C269.648 377.3 274.048 408.1 282.048 428.7C289.748 448.4 303.048 468.7 315.648 480.1C317.248 481.5 320.248 484.2 322.248 486.1C331.348 494.3 345.248 503.2 360.748 510.5C383.948 521.5 420.148 530 443.648 530H451.248L452.348 526.3C454.648 518.6 457.448 505.2 458.948 495C464.748 454.4 459.448 414.3 444.248 384.3C439.648 375.3 427.848 358.7 421.648 352.4L415.548 346.3L396.848 345.7C367.748 344.8 347.748 340.4 316.748 328.1L311.448 326L312.648 328.1ZM380.748 417C383.448 419.8 383.748 420.6 383.248 424.6C382.648 430 380.448 432.7 375.848 433.6C365.848 435.5 359.448 424 366.448 416.9C370.648 412.8 376.548 412.8 380.748 417Z" fill="#FF33A7"/>
</svg>
