<svg width="172" height="172" viewBox="0 0 172 172" fill="none" xmlns="http://www.w3.org/2000/svg">
<path d="M114.527 50.0966C112.665 50.1521 110.898 50.9303 109.6 52.2662L82.0947 79.7711C81.4069 80.4315 80.8578 81.2225 80.4796 82.0977C80.1013 82.973 79.9015 83.9149 79.8918 84.8683C79.8821 85.8218 80.0627 86.7675 80.4232 87.6503C80.7836 88.5331 81.3165 89.335 81.9907 90.0092C82.6649 90.6835 83.4669 91.2164 84.3496 91.5768C85.2324 91.9372 86.1782 92.1178 87.1316 92.1081C88.0851 92.0985 89.027 91.8986 89.9022 91.5204C90.7775 91.1421 91.5685 90.593 92.2288 89.9052L119.734 62.4003C120.769 61.3937 121.477 60.0977 121.763 58.6821C122.049 57.2665 121.901 55.7975 121.339 54.4675C120.776 53.1374 119.824 52.0085 118.609 51.2285C117.393 50.4486 115.97 50.054 114.527 50.0966V50.0966ZM157.527 50.0966C155.665 50.1521 153.898 50.9303 152.6 52.2662L86 118.866L62.4004 95.2662C61.74 94.5784 60.949 94.0293 60.0738 93.651C59.1985 93.2727 58.2566 93.0728 57.3031 93.0631C56.3497 93.0534 55.4039 93.2341 54.5211 93.5945C53.6383 93.9549 52.8363 94.4878 52.1621 95.1621C51.4879 95.8363 50.955 96.6383 50.5945 97.521C50.2341 98.4038 50.0535 99.3496 50.0632 100.303C50.0729 101.257 50.2727 102.198 50.651 103.074C51.0293 103.949 51.5785 104.74 52.2663 105.4L80.9329 134.067C82.277 135.411 84.0996 136.165 86 136.165C87.9004 136.165 89.723 135.411 91.0671 134.067L162.734 62.4003C163.769 61.3937 164.477 60.0977 164.763 58.6821C165.049 57.2665 164.901 55.7975 164.339 54.4675C163.776 53.1374 162.824 52.0085 161.609 51.2285C160.393 50.4486 158.97 50.054 157.527 50.0966V50.0966ZM14.2633 93.0966C12.8377 93.097 11.4445 93.5225 10.2619 94.3189C9.07933 95.1152 8.16111 96.2461 7.62464 97.567C7.08816 98.8879 6.95781 100.339 7.25023 101.734C7.54266 103.13 8.24459 104.406 9.26627 105.4L32.5719 128.72C33.2382 129.387 34.0293 129.915 34.9 130.276C35.7706 130.637 36.7039 130.823 37.6463 130.823C38.5888 130.823 39.5221 130.637 40.3928 130.277C41.2636 129.916 42.0548 129.388 42.7212 128.721C43.3876 128.055 43.9162 127.264 44.2769 126.393C44.6375 125.522 44.823 124.589 44.8229 123.646C44.8228 122.704 44.6371 121.771 44.2762 120.9C43.9154 120.029 43.3866 119.238 42.72 118.572L19.4004 95.2662C18.7325 94.5797 17.9338 94.034 17.0515 93.6613C16.1692 93.2887 15.2211 93.0967 14.2633 93.0966V93.0966Z" fill="#00FF29"/>
</svg>
