<svg width="172" height="172" viewBox="0 0 172 172" fill="none" xmlns="http://www.w3.org/2000/svg">
<path d="M119.888 14.3334C116.247 14.3334 113.186 17.055 112.763 20.6742L112.469 23.1937C109.005 24.3976 105.876 26.2315 103.161 28.5827L100.823 27.5749C97.4836 26.1344 93.5873 27.417 91.7669 30.5704L89.8213 33.9297C88.0081 37.0831 88.8501 41.0945 91.7669 43.266L93.7266 44.7217C93.3867 46.4867 93.1667 48.3026 93.1667 50.1667C93.1667 52.0308 93.3867 53.8467 93.7266 55.6117L91.7669 57.0674C88.8429 59.2389 88.001 63.2504 89.8213 66.4037L91.7669 69.7771C93.5873 72.9304 97.4836 74.213 100.823 72.7725L103.161 71.7507C105.88 74.1048 109.014 75.9359 112.483 77.1397L112.777 79.6592C113.193 83.2784 116.247 86 119.888 86H123.779C127.42 86 130.481 83.2784 130.904 79.6592L131.198 77.1397C134.661 75.9358 137.79 74.1019 140.506 71.7507L142.843 72.7585C146.183 74.199 150.079 72.9164 151.9 69.7631L153.845 66.4037C155.659 63.2504 154.817 59.2389 151.9 57.0674L149.94 55.6117C150.28 53.8467 150.5 52.0308 150.5 50.1667C150.5 48.3026 150.28 46.4867 149.94 44.7217L151.9 43.266C154.824 41.0945 155.666 37.0831 153.845 33.9297L151.9 30.5564C150.079 27.403 146.183 26.1204 142.843 27.5609L140.506 28.5827C137.787 26.2286 134.652 24.3975 131.184 23.1937L130.89 20.6742C130.474 17.055 127.42 14.3334 123.779 14.3334H119.888ZM121.833 37.625C128.756 37.625 134.375 43.2437 134.375 50.1667C134.375 57.0969 128.756 62.7084 121.833 62.7084C114.91 62.7084 109.292 57.0969 109.292 50.1667C109.292 43.2437 114.91 37.625 121.833 37.625ZM55.3877 64.5C51.747 64.5 48.6859 67.2217 48.263 70.8409L47.5772 76.7618C41.7947 78.4068 36.5681 81.3478 32.376 85.4261L27.015 83.1166C23.6753 81.6761 19.779 82.9587 17.9587 86.112L16.013 89.4714C14.1999 92.6247 15.0418 96.6362 17.9587 98.8077L22.7038 102.335C21.993 105.15 21.5 108.048 21.5 111.083C21.5 114.119 21.993 117.017 22.7038 119.832L17.9587 123.359C15.0347 125.531 14.1927 129.542 16.013 132.695L17.9587 136.055C19.779 139.208 23.6753 140.491 27.015 139.05L32.376 136.741C36.5681 140.819 41.7947 143.76 47.5772 145.405L48.277 151.326C48.6927 154.945 51.747 157.667 55.3877 157.667H59.279C62.9196 157.667 65.9808 154.945 66.4037 151.326L67.0895 145.405C72.872 143.76 78.0985 140.819 82.2907 136.741L87.6517 139.05C90.9914 140.491 94.8877 139.208 96.708 136.055L98.6537 132.695C100.467 129.542 99.6249 125.531 96.708 123.359L91.9629 119.832C92.6736 117.017 93.1667 114.119 93.1667 111.083C93.1667 108.048 92.6736 105.15 91.9629 102.335L96.708 98.8077C99.632 96.6362 100.474 92.6247 98.6537 89.4714L96.708 86.112C94.8877 82.9587 90.9914 81.6761 87.6517 83.1166L82.2907 85.4261C78.0985 81.3478 72.872 78.4068 67.0895 76.7618L66.3897 70.8409C65.974 67.2217 62.9196 64.5 59.279 64.5H55.3877ZM57.3333 96.75C65.2525 96.75 71.6667 103.164 71.6667 111.083C71.6667 119.003 65.2525 125.417 57.3333 125.417C49.4142 125.417 43 119.003 43 111.083C43 103.164 49.4142 96.75 57.3333 96.75Z" fill="#0288D1"/>
</svg>
