<svg width="172" height="172" viewBox="0 0 172 172" fill="none" xmlns="http://www.w3.org/2000/svg">
<path d="M86 14.3334C82.3515 14.3374 78.8419 15.7326 76.1864 18.2346C73.5309 20.7366 71.9296 24.1571 71.7087 27.7989L36.5612 45.3796C34.2196 43.8303 31.4745 43.0029 28.6667 43C24.8652 43 21.2195 44.5102 18.5315 47.1982C15.8435 49.8862 14.3333 53.5319 14.3333 57.3334C14.3333 61.1348 15.8435 64.7805 18.5315 67.4686C21.2195 70.1566 24.8652 71.6667 28.6667 71.6667C31.4697 71.6611 34.2095 70.8338 36.5472 69.2871L71.7087 86.8679C71.8545 89.2266 72.5813 91.5126 73.8244 93.5225C75.0674 95.5324 76.7881 97.2037 78.8333 98.3877V130.932C78.5863 131.074 78.3436 131.223 78.1055 131.38L42.958 113.799C42.7371 110.157 41.1357 106.737 38.4803 104.235C35.8248 101.733 32.3152 100.337 28.6667 100.333C24.8652 100.333 21.2195 101.843 18.5315 104.532C15.8435 107.22 14.3333 110.865 14.3333 114.667C14.3333 118.468 15.8435 122.114 18.5315 124.802C21.2195 127.49 24.8652 129 28.6667 129C31.4697 128.994 34.2095 128.167 36.5472 126.62L71.7087 144.201C71.9296 147.843 73.5309 151.264 76.1864 153.766C78.8419 156.268 82.3515 157.663 86 157.667C89.6508 157.662 93.1624 156.265 95.8182 153.76C98.474 151.255 100.074 147.832 100.291 144.187L135.439 126.62C137.78 128.17 140.526 128.997 143.333 129C147.135 129 150.781 127.49 153.469 124.802C156.157 122.114 157.667 118.468 157.667 114.667C157.667 110.865 156.157 107.22 153.469 104.532C150.781 101.843 147.135 100.333 143.333 100.333C139.685 100.337 136.175 101.733 133.52 104.235C130.864 106.737 129.263 110.157 129.042 113.799L93.8945 131.38C93.6562 131.228 93.4135 131.083 93.1667 130.946V98.3877C95.2119 97.2037 96.9326 95.5324 98.1756 93.5225C99.4187 91.5126 100.145 89.2266 100.291 86.8679L135.439 69.2871C137.78 70.8364 140.526 71.6639 143.333 71.6667C147.135 71.6667 150.781 70.1566 153.469 67.4686C156.157 64.7805 157.667 61.1348 157.667 57.3334C157.667 53.5319 156.157 49.8862 153.469 47.1982C150.781 44.5102 147.135 43 143.333 43C139.685 43.004 136.175 44.3992 133.52 46.9012C130.864 49.4032 129.263 52.8237 129.042 56.4655L93.8805 74.0463C91.5429 72.4996 88.803 71.6723 86 71.6667C83.1922 71.6695 80.4471 72.497 78.1055 74.0463L44.6937 57.3334L78.1055 40.6205C80.4471 42.1698 83.1922 42.9972 86 43C89.8014 43 93.4472 41.4899 96.1352 38.8019C98.8232 36.1139 100.333 32.4681 100.333 28.6667C100.333 24.8653 98.8232 21.2195 96.1352 18.5315C93.4472 15.8435 89.8014 14.3334 86 14.3334Z" fill="#9FFF71"/>
</svg>
