<svg width="681" height="647" viewBox="0 0 681 647" fill="none" xmlns="http://www.w3.org/2000/svg">
  <path d="M331.989 5.73433C320.884 14.2748 293.549 42.0922 285.616 52.8288C272.437 71.0077 267.556 78.6942 260.478 92.7249C247.542 118.956 241.563 141.161 240.22 168.247C239.488 181.18 241.441 204.117 243.271 207.045C243.759 207.655 246.932 209.973 250.227 212.291C277.562 230.47 302.701 257.19 324.667 291.351C327.84 296.232 330.525 300.136 330.769 299.892C331.013 299.648 331.745 289.643 332.477 277.565C333.942 253.285 337.114 205.703 338.213 191.794C338.579 187.036 339.311 183.01 339.921 183.01C341.019 183.01 341.63 188.866 343.582 218.391C346.511 263.29 349.684 314.411 349.806 317.827C349.806 321.121 350.782 321.975 358.836 325.879L367.867 330.393L375.677 321.609C391.297 304.162 405.819 283.543 415.948 264.754C421.927 253.651 429.371 236.692 428.151 236.692C427.785 236.692 428.029 235.96 428.761 235.106C433.276 229.494 439.988 193.868 439.988 175.079C439.988 117.248 406.795 54.7809 351.758 9.0285C345.779 4.02624 340.531 2.61962e-05 340.165 2.61962e-05C339.677 2.61962e-05 336.016 2.56216 331.989 5.73433ZM349.196 153.85C352.857 157.266 353.833 163.367 351.392 168.125C349.074 172.761 346.023 174.713 340.165 174.835C334.308 174.957 328.938 169.101 328.938 162.513C328.938 157.876 332.721 152.752 337.481 150.922C340.531 149.702 346.389 151.166 349.196 153.85Z" fill="#FF90E0"/>
  <path d="M118.553 198.992C104.519 200.701 85.1161 205.459 68.3976 211.315C51.435 217.293 22.6352 231.324 8.84547 240.353C0.669257 245.721 -0.551074 246.941 0.181124 249.259C2.25569 256.457 10.1878 274.148 16.7776 286.715C49.3605 349.06 96.9534 389.078 152.356 400.913C164.804 403.475 167.366 403.231 173.102 398.473C195.556 380.172 235.217 361.139 268.898 352.599C275 351.012 280.125 349.426 280.125 349.06C280.125 348.084 274.511 345.766 220.695 324.415C179.814 308.31 169.929 303.796 175.299 303.796C176.031 303.796 190.431 307.334 207.271 311.604C224.234 315.997 250.105 322.585 264.871 326.245C279.637 330.027 294.891 333.932 298.674 335.03L305.63 337.104L310.511 332.711C313.196 330.393 316.857 327.465 318.809 326.245C320.64 325.025 322.47 323.927 322.715 323.805C323.447 323.317 315.637 310.14 306.24 295.866C294.281 277.809 283.908 265.242 269.508 251.211C242.295 224.736 217.034 210.461 182.132 201.799C172.004 199.358 165.902 198.626 148.939 198.26C137.59 198.016 123.801 198.382 118.553 198.992ZM160.899 285.373C164.56 286.837 167.855 293.547 167.611 299.282C167.488 302.942 166.756 303.918 162.973 306.114C156.505 309.652 151.624 309.408 146.865 305.138C136.37 295.744 147.353 280.249 160.899 285.373Z" fill="#FF90E0"/>
  <path d="M512.598 198.992C495.513 201.311 469.642 209.485 457.927 216.317C453.412 218.88 452.924 219.856 447.92 234.984C437.304 266.584 419.853 296.964 395.202 326.367C392.883 329.051 391.541 331.369 392.151 331.613C392.761 331.735 405.331 328.807 419.975 325.025C484.164 308.554 507.717 302.698 508.205 303.308C509.669 304.772 505.154 306.724 457.683 325.147C446.334 329.539 435.351 333.932 433.276 334.786C431.324 335.762 418.755 340.764 405.575 345.888L381.534 355.405V362.359C381.534 366.141 381.168 371.266 380.802 373.706C379.948 378.098 379.948 378.22 385.806 380.782C408.138 390.421 435.229 398.595 456.463 402.133C473.303 404.817 505.398 404.939 520.164 402.255C580.692 391.275 630.97 350.158 664.651 283.909C670.631 272.074 680.393 249.381 680.393 247.185C680.393 244.867 645.37 225.102 629.14 218.147C597.777 204.849 571.784 198.87 541.886 198.26C530.537 198.016 517.357 198.382 512.598 198.992ZM532.489 287.325C538.713 292.571 538.713 301.112 532.367 306.358C528.584 309.53 521.018 309.286 516.259 305.992C513.086 303.918 512.354 302.454 512.232 298.672C511.988 292.937 514.795 286.959 518.456 285.495C523.459 283.421 528.706 284.153 532.489 287.325Z" fill="#FF33A7"/>
  <path d="M278.294 368.459C245.712 376.878 221.061 387.492 197.265 403.109C181.278 413.724 157.604 436.783 148.451 450.814C130.146 478.753 120.018 509.987 118.065 545.003C116.723 567.94 116.601 570.014 117.943 586.729C119.407 604.664 122.702 623.331 127.706 642.242L129.048 647L144.424 646.268C171.027 644.926 199.339 638.826 225.82 628.699C270.85 611.374 305.996 581.727 326.253 543.661L330.159 536.584L325.277 522.309C316.003 494.98 312.586 469.359 313.196 433.245C313.684 412.016 313.562 410.186 311.732 412.138C310.633 413.236 301.847 423.85 292.206 435.563C282.444 447.276 268.288 464.478 260.6 473.751C247.786 489.246 243.881 492.54 244.247 487.66C244.369 486.074 264.017 454.23 281.955 426.412C285.494 421.044 292.328 410.43 297.088 402.743L305.996 388.834L302.823 382.612C301.115 379.196 299.162 373.462 298.308 369.923C297.576 366.507 296.966 363.579 296.844 363.579C296.721 363.701 288.423 365.775 278.294 368.459ZM230.824 504.619C232.166 504.985 234.241 506.815 235.339 508.767C240.83 517.917 235.217 528.288 224.966 528.288C218.376 528.288 214.837 525.97 213.007 520.357C211.298 515.111 213.129 508.523 217.034 505.717C219.719 503.886 226.064 503.398 230.824 504.619Z" fill="#FF90E0"/>
  <path d="M381.534 400.303C382.267 401.767 396.3 423.972 412.653 449.838C429.005 475.703 442.429 497.298 442.429 497.908C442.429 498.518 441.941 499.006 441.331 499.006C440.232 499.006 433.887 491.442 391.297 439.955C382.877 429.829 375.799 421.288 375.311 420.922C374.945 420.556 371.406 416.286 367.501 411.406C363.596 406.525 359.935 402.255 359.324 402.011C358.836 401.645 355.297 402.255 351.392 403.231C347.487 404.207 341.752 405.061 338.579 405.061C331.623 405.061 331.867 404.451 330.647 427.632C329.06 460.33 334.43 497.908 344.192 523.041C353.589 547.077 369.819 571.844 385.195 585.753C387.148 587.461 390.809 590.755 393.25 593.073C404.355 603.078 421.317 613.936 440.232 622.843C468.544 636.263 512.72 646.634 541.398 646.634H550.672L552.015 642.12C554.821 632.725 558.238 616.376 560.069 603.932C567.147 554.397 560.679 505.473 542.13 468.871C536.516 457.89 522.117 437.637 514.551 429.951L507.106 422.508L484.286 421.776C448.775 420.678 424.368 415.31 386.538 400.303L380.07 397.741L381.534 400.303ZM464.639 508.767C467.934 512.183 468.3 513.159 467.69 518.039C466.958 524.628 464.273 527.922 458.659 529.02C446.456 531.338 438.646 517.307 447.188 508.645C452.314 503.642 459.514 503.642 464.639 508.767Z" fill="#FF90E0"/>
  </svg>
  