<svg width="256" height="256" viewBox="0 0 256 256" fill="none" xmlns="http://www.w3.org/2000/svg">
<path d="M175.896 19.6874C169.947 20.1092 164.171 22.9418 160.333 28.0624L133.354 63.9999H87.1458C81.3751 63.9999 76.2696 67.7353 74.5416 73.2499L27.8124 206.187C27.0018 208.769 30.2156 210.701 32.1249 208.792L96.7916 144.125C96.6209 143.485 96.4608 142.849 96.3541 142.187C96.1621 141.174 96.0736 140.129 96.0416 139.062C96.0416 138.924 95.9999 138.805 95.9999 138.667C95.9999 138.549 96.0416 138.44 96.0416 138.333C96.0629 137.459 96.1209 136.573 96.2916 135.667C97.7636 125.309 106.581 117.333 117.333 117.333C117.739 117.333 118.105 117.437 118.5 117.458C118.735 117.469 118.953 117.395 119.187 117.417C119.667 117.459 120.135 117.582 120.604 117.646C121.159 117.731 121.696 117.809 122.229 117.937C123.029 118.129 123.794 118.389 124.562 118.667C125.042 118.837 125.531 118.995 126 119.208C126.811 119.571 127.566 120.01 128.312 120.458C128.686 120.682 129.065 120.859 129.417 121.104C131.561 122.576 133.424 124.418 134.896 126.562C135.141 126.914 135.318 127.325 135.542 127.687C135.99 128.434 136.44 129.179 136.792 129.979C137.005 130.448 137.142 130.947 137.312 131.437C137.59 132.195 137.85 132.95 138.042 133.75C138.17 134.283 138.248 134.841 138.333 135.396C138.408 135.865 138.541 136.332 138.583 136.812C138.605 137.047 138.531 137.255 138.542 137.479C138.574 137.884 138.667 138.261 138.667 138.667C138.667 149.419 130.68 158.236 120.333 159.708C119.416 159.879 118.531 159.948 117.667 159.958C117.549 159.958 117.451 160 117.333 160C117.195 160 117.076 159.969 116.937 159.958C115.871 159.937 114.836 159.838 113.812 159.646C113.151 159.539 112.515 159.379 111.875 159.208L47.2083 223.875C45.2989 225.784 47.2311 228.977 49.8124 228.167L182.75 181.437C188.254 179.72 192 174.625 192 168.854V122.333L226.125 93.8749C236.366 86.1993 237.459 70.7503 228.417 61.7083L192.479 25.7708C187.958 21.2498 181.844 19.2657 175.896 19.6874ZM177.396 40.8749L213.333 76.7916C213.184 76.9058 213.038 77.0239 212.896 77.1458L181.979 102.896L152.75 73.6666L177.396 40.8749Z" fill="#FFB800"/>
</svg>
