<svg width="256" height="256" viewBox="0 0 256 256" fill="none" xmlns="http://www.w3.org/2000/svg">
<path d="M21.44 74.0267C21.44 72.96 21.76 71.8934 22.1866 70.8267C22.1866 70.72 22.1866 70.5067 22.2933 70.2934C22.2933 70.1867 22.5066 70.08 22.6133 69.8667C23.04 68.9067 23.68 68.0534 24.4266 67.3067C24.5333 67.2 24.64 66.9867 24.8533 66.7734C25.7066 66.0267 26.6666 65.3867 27.6266 64.96L123.627 22.2934C126.4 21.0134 129.6 21.0134 132.373 22.2934L228.373 64.96C229.44 65.3867 230.293 66.0267 231.147 66.7734C231.36 66.9867 231.467 67.2 231.573 67.3067C232.32 68.0534 232.96 68.9067 233.387 69.8667C233.493 70.08 233.707 70.1867 233.707 70.2934C233.813 70.5067 233.813 70.72 233.813 70.8267C234.24 71.8934 234.56 72.96 234.56 74.0267C234.56 74.24 234.667 74.3467 234.667 74.56V181.333C234.667 185.6 232.213 189.333 228.373 191.04L132.373 233.707C132.267 233.707 132.267 233.707 132.267 233.813C130.987 234.347 129.493 234.667 128 234.667C126.507 234.667 125.013 234.347 123.733 233.813C123.733 233.707 123.733 233.707 123.627 233.707L27.6266 191.04C23.7866 189.333 21.3333 185.6 21.3333 181.333V74.56C21.3333 74.3467 21.44 74.24 21.44 74.0267ZM138.667 207.573L213.333 174.4V91.0934L138.667 124.267V207.573ZM128 105.707L197.76 74.6667L128 43.6267L58.24 74.6667L128 105.707Z" fill="#00E0FF"/>
</svg>
