<svg width="1440" height="1440" viewBox="0 0 1440 1440" fill="none" xmlns="http://www.w3.org/2000/svg">
  <path d="M300 180H420V300H300V600C300 631.826 287.357 662.348 264.853 684.853C242.348 707.357 211.826 720 180 720C211.826 720 242.348 732.643 264.853 755.147C287.357 777.652 300 808.174 300 840V1140H420V1260H300C235.8 1243.8 180 1206 180 1140V900C180 868.174 167.357 837.652 144.853 815.147C122.348 792.643 91.826 780 60 780H0V660H60C91.826 660 122.348 647.357 144.853 624.853C167.357 602.348 180 571.826 180 540V300C180 268.174 192.643 237.652 215.147 215.147C237.652 192.643 268.174 180 300 180ZM1140 180C1171.83 180 1202.35 192.643 1224.85 215.147C1247.36 237.652 1260 268.174 1260 300V540C1260 571.826 1272.64 602.348 1295.15 624.853C1317.65 647.357 1348.17 660 1380 660H1440V780H1380C1348.17 780 1317.65 792.643 1295.15 815.147C1272.64 837.652 1260 868.174 1260 900V1140C1260 1171.83 1247.36 1202.35 1224.85 1224.85C1202.35 1247.36 1171.83 1260 1140 1260H1020V1140H1140V840C1140 808.174 1152.64 777.652 1175.15 755.147C1197.65 732.643 1228.17 720 1260 720C1228.17 720 1197.65 707.357 1175.15 684.853C1152.64 662.348 1140 631.826 1140 600V300H1020V180H1140Z" fill="#FF33A7"/>
  <path d="M711.989 371.734C700.884 380.275 673.549 408.092 665.616 418.829C652.437 437.008 647.556 444.694 640.478 458.725C627.542 484.956 621.563 507.161 620.22 534.247C619.488 547.18 621.44 570.117 623.271 573.045C623.759 573.655 626.932 575.973 630.227 578.291C657.562 596.47 682.701 623.19 704.667 657.351C707.84 662.232 710.525 666.136 710.769 665.892C711.013 665.648 711.745 655.643 712.477 643.565C713.942 619.285 717.114 571.703 718.213 557.794C718.579 553.036 719.311 549.01 719.921 549.01C721.019 549.01 721.63 554.866 723.582 584.391C726.511 629.29 729.684 680.411 729.806 683.827C729.806 687.121 730.782 687.975 738.836 691.879L747.867 696.393L755.677 687.609C771.297 670.162 785.819 649.543 795.948 630.754C801.927 619.651 809.371 602.692 808.151 602.692C807.785 602.692 808.029 601.96 808.761 601.106C813.276 595.494 819.988 559.868 819.988 541.079C819.988 483.248 786.795 420.781 731.758 375.028C725.779 370.026 720.531 366 720.165 366C719.677 366 716.016 368.562 711.989 371.734ZM729.196 519.85C732.857 523.266 733.833 529.367 731.392 534.125C729.074 538.761 726.023 540.713 720.165 540.835C714.308 540.957 708.938 535.101 708.938 528.513C708.938 523.876 712.721 518.752 717.48 516.922C720.531 515.702 726.389 517.166 729.196 519.85Z" fill="#FF90E0"/>
  <path d="M498.553 564.992C484.519 566.701 465.116 571.459 448.398 577.315C431.435 583.293 402.635 597.324 388.845 606.353C380.669 611.721 379.449 612.941 380.181 615.259C382.256 622.457 390.188 640.148 396.778 652.715C429.36 715.06 476.953 755.078 532.356 766.913C544.804 769.475 547.366 769.231 553.102 764.473C575.556 746.172 615.217 727.139 648.898 718.599C655 717.012 660.125 715.426 660.125 715.06C660.125 714.084 654.511 711.766 600.695 690.415C559.814 674.31 549.929 669.796 555.299 669.796C556.031 669.796 570.431 673.334 587.271 677.604C604.234 681.997 630.105 688.585 644.871 692.245C659.637 696.027 674.891 699.932 678.674 701.03L685.63 703.104L690.511 698.711C693.196 696.393 696.857 693.465 698.809 692.245C700.64 691.025 702.47 689.927 702.715 689.805C703.447 689.317 695.637 676.14 686.24 661.866C674.281 643.809 663.908 631.242 649.508 617.211C622.295 590.736 597.034 576.461 562.132 567.799C552.004 565.358 545.902 564.626 528.939 564.26C517.59 564.016 503.801 564.382 498.553 564.992ZM540.899 651.373C544.56 652.837 547.855 659.547 547.611 665.282C547.488 668.942 546.756 669.918 542.973 672.114C536.505 675.652 531.624 675.408 526.865 671.138C516.37 661.744 527.353 646.249 540.899 651.373Z" fill="#FF90E0"/>
  <path d="M892.598 564.992C875.513 567.311 849.642 575.485 837.927 582.317C833.412 584.88 832.924 585.856 827.92 600.984C817.303 632.584 799.853 662.964 775.202 692.367C772.883 695.051 771.541 697.369 772.151 697.613C772.761 697.735 785.331 694.807 799.975 691.025C864.164 674.554 887.717 668.698 888.205 669.308C889.669 670.772 885.154 672.724 837.683 691.147C826.334 695.539 815.351 699.932 813.276 700.786C811.324 701.762 798.754 706.764 785.575 711.888L761.534 721.405V728.359C761.534 732.141 761.168 737.265 760.802 739.706C759.948 744.098 759.948 744.22 765.806 746.782C788.138 756.42 815.229 764.595 836.463 768.133C853.303 770.817 885.398 770.939 900.164 768.255C960.692 757.275 1010.97 716.158 1044.65 649.909C1050.63 638.074 1060.39 615.381 1060.39 613.185C1060.39 610.867 1025.37 591.102 1009.14 584.147C977.777 570.849 951.784 564.87 921.886 564.26C910.537 564.016 897.357 564.382 892.598 564.992ZM912.489 653.325C918.713 658.571 918.713 667.112 912.367 672.358C908.584 675.53 901.018 675.286 896.259 671.992C893.086 669.918 892.354 668.454 892.232 664.672C891.988 658.937 894.794 652.959 898.455 651.495C903.459 649.421 908.706 650.153 912.489 653.325Z" fill="#FF90E0"/>
  <path d="M658.294 734.459C625.712 742.878 601.061 753.492 577.264 769.109C561.278 779.724 537.604 802.783 528.451 816.814C510.146 844.753 500.018 875.987 498.065 911.003C496.723 933.94 496.601 936.014 497.943 952.729C499.407 970.664 502.702 989.331 507.706 1008.24L509.048 1013L524.424 1012.27C551.027 1010.93 579.339 1004.83 605.82 994.699C650.85 977.374 685.996 947.727 706.253 909.661L710.158 902.584L705.277 888.309C696.003 860.98 692.586 835.359 693.196 799.245C693.684 778.016 693.562 776.186 691.731 778.138C690.633 779.236 681.847 789.85 672.206 801.563C662.444 813.276 648.288 830.478 640.6 839.751C627.786 855.246 623.881 858.54 624.247 853.66C624.369 852.074 644.017 820.23 661.955 792.412C665.494 787.044 672.328 776.43 677.087 768.743L685.996 754.834L682.823 748.612C681.115 745.196 679.162 739.462 678.308 735.923C677.576 732.507 676.965 729.579 676.843 729.579C676.721 729.701 668.423 731.775 658.294 734.459ZM610.824 870.619C612.166 870.985 614.24 872.815 615.339 874.767C620.83 883.917 615.217 894.288 604.966 894.288C598.376 894.288 594.837 891.97 593.007 886.357C591.298 881.111 593.129 874.523 597.034 871.717C599.719 869.886 606.064 869.398 610.824 870.619Z" fill="#FF90E0"/>
  <path d="M761.534 766.303C762.267 767.767 776.3 789.972 792.653 815.838C809.005 841.703 822.429 863.298 822.429 863.908C822.429 864.518 821.941 865.006 821.331 865.006C820.232 865.006 813.887 857.442 771.297 805.955C762.877 795.829 755.799 787.288 755.311 786.922C754.945 786.556 751.406 782.286 747.501 777.406C743.596 772.525 739.935 768.255 739.324 768.011C738.836 767.645 735.297 768.255 731.392 769.231C727.487 770.207 721.752 771.061 718.579 771.061C711.623 771.061 711.867 770.451 710.647 793.632C709.06 826.33 714.43 863.908 724.192 889.041C733.589 913.077 749.819 937.844 765.195 951.753C767.148 953.461 770.809 956.755 773.25 959.073C784.355 969.078 801.317 979.936 820.232 988.843C848.544 1002.26 892.72 1012.63 921.398 1012.63H930.672L932.015 1008.12C934.821 998.725 938.238 982.376 940.069 969.932C947.147 920.397 940.679 871.473 922.13 834.871C916.516 823.89 902.117 803.637 894.55 795.951L887.106 788.508L864.286 787.776C828.775 786.678 804.368 781.31 766.538 766.303L760.07 763.741L761.534 766.303ZM844.639 874.767C847.934 878.183 848.3 879.159 847.69 884.039C846.958 890.628 844.273 893.922 838.659 895.02C826.456 897.338 818.646 883.307 827.188 874.645C832.314 869.642 839.514 869.642 844.639 874.767Z" fill="#FF90E0"/>
  </svg>
  