<svg width="24" height="24" viewBox="0 0 24 24" fill="none" xmlns="http://www.w3.org/2000/svg">
  <path fill-rule="evenodd" clip-rule="evenodd" d="M19 20H4C2.89 20 2 19.1 2 18V6C2 4.89 2.89 4 4 4H10L12 6H19C20.097 6 21 6.903 21 8H4V18L6.14 10H23.21L20.93 18.5C20.7 19.37 19.92 20 19 20Z" fill="#FF90E0"/>
  <path d="M16.831 9.11635C16.6025 9.28964 16.04 9.85408 15.8768 10.0719C15.6056 10.4408 15.5052 10.5968 15.3595 10.8815C15.0934 11.4137 14.9703 11.8643 14.9427 12.4139C14.9276 12.6763 14.9678 13.1417 15.0055 13.2011C15.0155 13.2135 15.0808 13.2605 15.1486 13.3076C15.7111 13.6764 16.2283 14.2186 16.6803 14.9118C16.7456 15.0108 16.8008 15.09 16.8059 15.0851C16.8109 15.0801 16.8259 14.8771 16.841 14.632C16.8711 14.1394 16.9364 13.1739 16.959 12.8917C16.9666 12.7951 16.9816 12.7134 16.9942 12.7134C17.0168 12.7134 17.0293 12.8323 17.0695 13.4314C17.1298 14.3424 17.1951 15.3797 17.1976 15.449C17.1976 15.5158 17.2177 15.5332 17.3834 15.6124L17.5692 15.704L17.7299 15.5257C18.0513 15.1717 18.3501 14.7533 18.5585 14.3721C18.6816 14.1468 18.8347 13.8027 18.8096 13.8027C18.8021 13.8027 18.8071 13.7878 18.8222 13.7705C18.9151 13.6566 19.0532 12.9338 19.0532 12.5525C19.0532 11.3791 18.3702 10.1115 17.2377 9.18319C17.1147 9.08169 17.0067 8.99999 16.9992 8.99999C16.9892 8.99999 16.9138 9.05198 16.831 9.11635ZM17.185 12.1218C17.2603 12.1911 17.2804 12.3149 17.2302 12.4114C17.1825 12.5055 17.1197 12.5451 16.9992 12.5476C16.8787 12.55 16.7682 12.4312 16.7682 12.2975C16.7682 12.2034 16.846 12.0995 16.944 12.0623C17.0067 12.0376 17.1273 12.0673 17.185 12.1218Z" fill="#FFDEF6"/>
  <path d="M12.4394 13.0377C12.1506 13.0724 11.7514 13.1689 11.4074 13.2878C11.0583 13.4091 10.4657 13.6938 10.182 13.877C10.0138 13.9859 9.98866 14.0106 10.0037 14.0577C10.0464 14.2037 10.2096 14.5627 10.3452 14.8177C11.0157 16.0827 11.9949 16.8947 13.1349 17.1349C13.3911 17.1869 13.4438 17.1819 13.5618 17.0854C14.0238 16.714 14.8399 16.3278 15.5329 16.1545C15.6585 16.1223 15.7639 16.0902 15.7639 16.0827C15.7639 16.0629 15.6484 16.0159 14.5411 15.5827C13.6999 15.2559 13.4965 15.1643 13.607 15.1643C13.6221 15.1643 13.9184 15.2361 14.2649 15.3227C14.6139 15.4118 15.1462 15.5455 15.4501 15.6198C15.7539 15.6965 16.0678 15.7758 16.1456 15.798L16.2887 15.8401L16.3892 15.751C16.4444 15.704 16.5197 15.6446 16.5599 15.6198C16.5976 15.595 16.6353 15.5728 16.6403 15.5703C16.6553 15.5604 16.4946 15.293 16.3013 15.0034C16.0552 14.637 15.8418 14.382 15.5455 14.0973C14.9855 13.5601 14.4658 13.2704 13.7476 13.0947C13.5392 13.0451 13.4137 13.0303 13.0646 13.0229C12.8311 13.0179 12.5474 13.0253 12.4394 13.0377ZM13.3107 14.7905C13.386 14.8202 13.4538 14.9563 13.4488 15.0727C13.4463 15.147 13.4312 15.1668 13.3534 15.2113C13.2203 15.2831 13.1199 15.2782 13.0219 15.1915C12.806 15.0009 13.032 14.6865 13.3107 14.7905Z" fill="#FFDEF6"/>
  <path d="M20.5474 13.0377C20.1959 13.0847 19.6635 13.2506 19.4225 13.3892C19.3296 13.4412 19.3195 13.461 19.2166 13.768C18.9981 14.4092 18.639 15.0256 18.1318 15.6223C18.0841 15.6767 18.0565 15.7238 18.069 15.7287C18.0816 15.7312 18.3402 15.6718 18.6415 15.595C19.9623 15.2608 20.447 15.142 20.457 15.1544C20.4871 15.1841 20.3942 15.2237 19.4174 15.5975C19.1839 15.6866 18.9579 15.7757 18.9152 15.7931C18.8751 15.8129 18.6164 15.9144 18.3453 16.0184L17.8506 16.2115V16.3526C17.8506 16.4293 17.8431 16.5333 17.8355 16.5828C17.8179 16.6719 17.8179 16.6744 17.9385 16.7264C18.398 16.922 18.9554 17.0878 19.3923 17.1596C19.7389 17.2141 20.3992 17.2166 20.7031 17.1621C21.9485 16.9393 22.9831 16.105 23.6761 14.7607C23.7991 14.5206 24 14.0601 24 14.0156C24 13.9685 23.2793 13.5675 22.9454 13.4264C22.3001 13.1565 21.7652 13.0352 21.15 13.0228C20.9165 13.0179 20.6453 13.0253 20.5474 13.0377ZM20.9567 14.8301C21.0847 14.9365 21.0847 15.1098 20.9542 15.2163C20.8763 15.2806 20.7206 15.2757 20.6227 15.2088C20.5574 15.1667 20.5424 15.137 20.5399 15.0603C20.5348 14.9439 20.5926 14.8226 20.6679 14.7929C20.7709 14.7508 20.8788 14.7657 20.9567 14.8301Z" fill="#FFDEF6"/>
  <path d="M15.7262 16.4764C15.0557 16.6472 14.5485 16.8626 14.0589 17.1795C13.7299 17.3948 13.2428 17.8627 13.0545 18.1474C12.6778 18.7144 12.4694 19.3481 12.4292 20.0586C12.4016 20.524 12.3991 20.5661 12.4267 20.9053C12.4569 21.2692 12.5247 21.648 12.6276 22.0317L12.6552 22.1282L12.9716 22.1134C13.519 22.0861 14.1016 21.9624 14.6464 21.7569C15.573 21.4054 16.2962 20.8038 16.713 20.0314L16.7933 19.8878L16.6929 19.5981C16.5021 19.0436 16.4318 18.5237 16.4443 17.7909C16.4544 17.3602 16.4518 17.3231 16.4142 17.3627C16.3916 17.3849 16.2108 17.6003 16.0124 17.838C15.8115 18.0756 15.5203 18.4247 15.3621 18.6129C15.0984 18.9273 15.0181 18.9941 15.0256 18.8951C15.0281 18.8629 15.4324 18.2168 15.8015 17.6523C15.8743 17.5434 16.0149 17.328 16.1129 17.172L16.2962 16.8898L16.2309 16.7636C16.1957 16.6942 16.1556 16.5779 16.138 16.5061C16.1229 16.4368 16.1104 16.3774 16.1078 16.3774C16.1053 16.3798 15.9346 16.4219 15.7262 16.4764ZM14.7494 19.2392C14.777 19.2466 14.8197 19.2837 14.8423 19.3234C14.9553 19.509 14.8398 19.7195 14.6289 19.7195C14.4933 19.7195 14.4205 19.6724 14.3828 19.5585C14.3476 19.4521 14.3853 19.3184 14.4657 19.2615C14.5209 19.2243 14.6515 19.2144 14.7494 19.2392Z" fill="#FFDEF6"/>
  <path d="M17.8506 17.1226C17.8657 17.1523 18.1544 17.6028 18.4909 18.1277C18.8274 18.6525 19.1036 19.0907 19.1036 19.1031C19.1036 19.1154 19.0935 19.1253 19.081 19.1253C19.0584 19.1253 18.9278 18.9719 18.0515 17.9271C17.8782 17.7217 17.7326 17.5484 17.7225 17.5409C17.715 17.5335 17.6422 17.4469 17.5618 17.3478C17.4815 17.2488 17.4062 17.1622 17.3936 17.1572C17.3836 17.1498 17.3107 17.1622 17.2304 17.182C17.15 17.2018 17.032 17.2191 16.9667 17.2191C16.8236 17.2191 16.8286 17.2067 16.8035 17.6771C16.7709 18.3406 16.8814 19.1031 17.0822 19.613C17.2756 20.1007 17.6095 20.6033 17.9259 20.8855C17.9661 20.9202 18.0414 20.987 18.0917 21.0341C18.3202 21.2371 18.6692 21.4574 19.0584 21.6381C19.6409 21.9104 20.5499 22.1208 21.14 22.1208H21.3308L21.3585 22.0293C21.4162 21.8386 21.4865 21.5069 21.5242 21.2544C21.6698 20.2493 21.5367 19.2566 21.1551 18.5139C21.0396 18.2911 20.7433 17.8801 20.5876 17.7241L20.4344 17.5731L19.9649 17.5583C19.2342 17.536 18.732 17.4271 17.9535 17.1226L17.8205 17.0706L17.8506 17.1226ZM19.5606 19.3234C19.6284 19.3927 19.6359 19.4125 19.6234 19.5115C19.6083 19.6452 19.5531 19.7121 19.4375 19.7343C19.1864 19.7814 19.0257 19.4967 19.2015 19.3209C19.307 19.2194 19.4551 19.2194 19.5606 19.3234Z" fill="#FFDEF6"/>
  </svg>
  