<svg width="1642" height="1642" viewBox="0 0 1642 1642" fill="none" xmlns="http://www.w3.org/2000/svg">
  <g clip-path="url(#clip0)">
  <path d="M722.5 1149.54H492.452V1018.12H722.5V1149.54ZM1078.5 886.694H492.459V755.273H1078.5V886.694ZM1149.57 623.851H492.459V492.43H1149.57V623.851ZM1280.99 229.587H361.058C288.119 229.587 229.636 288.069 229.636 361.008V1280.94C229.636 1315.79 243.482 1349.22 268.129 1373.87C292.775 1398.51 326.203 1412.36 361.058 1412.36H1280.99C1315.84 1412.36 1349.27 1398.51 1373.92 1373.87C1398.56 1349.22 1412.41 1315.79 1412.41 1280.94V361.008C1412.41 288.069 1353.27 229.587 1280.99 229.587Z" fill="#FF33A7"/>
  <path d="M1205.4 828.192C1191.47 838.904 1157.19 873.795 1147.24 887.261C1130.71 910.063 1124.59 919.703 1115.71 937.302C1099.48 970.203 1091.98 998.054 1090.3 1032.03C1089.38 1048.25 1091.83 1077.02 1094.13 1080.69C1094.74 1081.45 1098.72 1084.36 1102.85 1087.27C1137.14 1110.07 1168.67 1143.58 1196.22 1186.43C1200.2 1192.55 1203.57 1197.45 1203.87 1197.14C1204.18 1196.84 1205.1 1184.29 1206.01 1169.14C1207.85 1138.69 1211.83 1079.01 1213.21 1061.56C1213.67 1055.59 1214.59 1050.54 1215.35 1050.54C1216.73 1050.54 1217.49 1057.89 1219.94 1094.92C1223.62 1151.24 1227.6 1215.35 1227.75 1219.64C1227.75 1223.77 1228.97 1224.84 1239.08 1229.74L1250.4 1235.4L1260.2 1224.38C1279.79 1202.5 1298 1176.64 1310.71 1153.07C1318.21 1139.15 1327.55 1117.87 1326.01 1117.87C1325.56 1117.87 1325.86 1116.96 1326.78 1115.89C1332.44 1108.85 1340.86 1064.16 1340.86 1040.6C1340.86 968.06 1299.23 889.71 1230.2 832.324C1222.7 826.05 1216.12 821 1215.66 821C1215.05 821 1210.45 824.214 1205.4 828.192ZM1226.98 1013.97C1231.58 1018.25 1232.8 1025.9 1229.74 1031.87C1226.83 1037.69 1223 1040.14 1215.66 1040.29C1208.31 1040.44 1201.58 1033.1 1201.58 1024.83C1201.58 1019.02 1206.32 1012.59 1212.29 1010.3C1216.12 1008.77 1223.46 1010.6 1226.98 1013.97Z" fill="#FF90E0"/>
  <path d="M937.697 1070.59C920.095 1072.73 895.758 1078.7 874.789 1086.05C853.513 1093.54 817.391 1111.14 800.095 1122.47C789.839 1129.2 788.309 1130.73 789.227 1133.64C791.829 1142.67 801.778 1164.85 810.044 1180.62C850.911 1258.81 910.605 1309.01 980.095 1323.85C995.708 1327.06 998.922 1326.76 1006.12 1320.79C1034.28 1297.84 1084.02 1273.96 1126.27 1263.25C1133.92 1261.26 1140.35 1259.27 1140.35 1258.81C1140.35 1257.59 1133.31 1254.68 1065.81 1227.9C1014.53 1207.7 1002.14 1202.04 1008.87 1202.04C1009.79 1202.04 1027.85 1206.48 1048.97 1211.83C1070.25 1217.34 1102.7 1225.61 1121.22 1230.2C1139.74 1234.94 1158.87 1239.84 1163.62 1241.22L1172.34 1243.82L1178.46 1238.31C1181.83 1235.4 1186.42 1231.73 1188.87 1230.2C1191.17 1228.67 1193.46 1227.29 1193.77 1227.14C1194.69 1226.53 1184.89 1210 1173.11 1192.09C1158.11 1169.45 1145.1 1153.68 1127.03 1136.09C1092.9 1102.88 1061.22 1084.97 1017.44 1074.11C1004.74 1071.05 997.085 1070.13 975.809 1069.67C961.575 1069.37 944.279 1069.82 937.697 1070.59ZM990.81 1178.93C995.401 1180.77 999.534 1189.19 999.228 1196.38C999.075 1200.97 998.157 1202.19 993.412 1204.95C985.299 1209.39 979.177 1209.08 973.207 1203.72C960.044 1191.94 973.82 1172.51 990.81 1178.93Z" fill="#FF90E0"/>
  <path d="M1431.93 1070.59C1410.5 1073.5 1378.06 1083.75 1363.36 1092.32C1357.7 1095.53 1357.09 1096.76 1350.81 1115.73C1337.49 1155.37 1315.61 1193.47 1284.69 1230.35C1281.78 1233.72 1280.1 1236.62 1280.86 1236.93C1281.63 1237.08 1297.39 1233.41 1315.76 1228.67C1396.27 1208.01 1425.81 1200.66 1426.42 1201.43C1428.26 1203.26 1422.6 1205.71 1363.06 1228.82C1348.82 1234.33 1335.05 1239.84 1332.44 1240.91C1329.99 1242.13 1314.23 1248.41 1297.7 1254.84L1267.54 1266.77V1275.49C1267.54 1280.24 1267.09 1286.67 1266.63 1289.73C1265.56 1295.23 1265.56 1295.39 1272.9 1298.6C1300.91 1310.69 1334.89 1320.94 1361.52 1325.38C1382.65 1328.75 1422.9 1328.9 1441.42 1325.53C1517.34 1311.76 1580.4 1260.19 1622.65 1177.1C1630.15 1162.25 1642.39 1133.79 1642.39 1131.04C1642.39 1128.13 1598.46 1103.34 1578.11 1094.61C1538.77 1077.93 1506.17 1070.44 1468.67 1069.67C1454.43 1069.37 1437.9 1069.82 1431.93 1070.59ZM1456.88 1181.38C1464.69 1187.96 1464.69 1198.67 1456.73 1205.25C1451.98 1209.23 1442.49 1208.93 1436.53 1204.8C1432.55 1202.19 1431.63 1200.36 1431.47 1195.61C1431.17 1188.42 1434.69 1180.92 1439.28 1179.09C1445.56 1176.48 1452.14 1177.4 1456.88 1181.38Z" fill="#FF90E0"/>
  <path d="M1138.05 1283.15C1097.19 1293.7 1066.27 1307.02 1036.42 1326.61C1016.37 1339.92 986.677 1368.84 975.197 1386.44C952.238 1421.48 939.534 1460.66 937.085 1504.58C935.401 1533.35 935.248 1535.95 936.932 1556.91C938.768 1579.41 942.901 1602.82 949.177 1626.54L950.86 1632.51L970.146 1631.59C1003.51 1629.91 1039.02 1622.26 1072.24 1609.56C1128.72 1587.83 1172.8 1550.64 1198.21 1502.89L1203.11 1494.02L1196.98 1476.11C1185.35 1441.84 1181.07 1409.7 1181.83 1364.4C1182.44 1337.78 1182.29 1335.48 1179.99 1337.93C1178.62 1339.31 1167.6 1352.62 1155.5 1367.31C1143.26 1382 1125.5 1403.58 1115.86 1415.21C1099.79 1434.64 1094.89 1438.78 1095.35 1432.65C1095.5 1430.66 1120.15 1390.72 1142.65 1355.83C1147.09 1349.1 1155.66 1335.79 1161.63 1326.15L1172.8 1308.7L1168.82 1300.9C1166.68 1296.61 1164.23 1289.42 1163.16 1284.98C1162.24 1280.7 1161.47 1277.02 1161.32 1277.02C1161.17 1277.18 1150.76 1279.78 1138.05 1283.15ZM1078.51 1453.93C1080.2 1454.38 1082.8 1456.68 1084.18 1459.13C1091.06 1470.61 1084.02 1483.61 1071.17 1483.61C1062.9 1483.61 1058.46 1480.71 1056.17 1473.67C1054.02 1467.09 1056.32 1458.82 1061.22 1455.3C1064.59 1453.01 1072.54 1452.39 1078.51 1453.93Z" fill="#FF90E0"/>
  <path d="M1267.55 1323.09C1268.46 1324.92 1286.07 1352.77 1306.58 1385.22C1327.09 1417.66 1343.92 1444.74 1343.92 1445.51C1343.92 1446.27 1343.31 1446.89 1342.55 1446.89C1341.17 1446.89 1333.21 1437.4 1279.79 1372.82C1269.23 1360.12 1260.35 1349.41 1259.74 1348.95C1259.28 1348.49 1254.84 1343.13 1249.94 1337.01C1245.05 1330.89 1240.45 1325.53 1239.69 1325.23C1239.08 1324.77 1234.64 1325.53 1229.74 1326.76C1224.84 1327.98 1217.65 1329.05 1213.67 1329.05C1204.94 1329.05 1205.25 1328.29 1203.72 1357.36C1201.73 1398.38 1208.46 1445.51 1220.71 1477.03C1232.49 1507.18 1252.85 1538.24 1272.14 1555.69C1274.59 1557.83 1279.18 1561.96 1282.24 1564.87C1296.17 1577.42 1317.44 1591.04 1341.17 1602.21C1376.68 1619.04 1432.09 1632.05 1468.06 1632.05H1479.69L1481.37 1626.39C1484.89 1614.6 1489.18 1594.1 1491.47 1578.49C1500.35 1516.36 1492.24 1455 1468.97 1409.09C1461.93 1395.32 1443.87 1369.91 1434.38 1360.27L1425.05 1350.94L1396.42 1350.02C1351.88 1348.64 1321.27 1341.91 1273.82 1323.09L1265.71 1319.87L1267.55 1323.09ZM1371.78 1459.13C1375.91 1463.41 1376.37 1464.64 1375.61 1470.76C1374.69 1479.02 1371.32 1483.15 1364.28 1484.53C1348.97 1487.44 1339.18 1469.84 1349.89 1458.98C1356.32 1452.7 1365.35 1452.7 1371.78 1459.13Z" fill="#FF90E0"/>
  </g>
  <defs>
  <clipPath id="clip0">
  <rect width="1642" height="1642" fill="white"/>
  </clipPath>
  </defs>
  </svg>
  